Patient5_TMGait_0pt45_1_left_12_EMG.mot
version=1
nRows=16
nColumns=33
inDegrees=no
endheader
time	1LAddLong	2LGlutMax	3LGlutMed	4LIliopsoas	5LSemiMemb	6LBicFemLong	7LRecFem	8LTensFascLat	9LVastMed	10LVasLat	11LGasMed	12lGasLat	13LTibAnt	14LPeroneusLong	15LSol	16LTibPost	17RAddLong	18RGlutMax	19RGlutMed	20RIliopsoas	21RSemiMemb	22RBicFemLong	23RRecFem	24RTensFascLat	25RVastMed	26RVasLat	27RGasMed	28RGasLat	29RTibAnt	30RPeroneusLong	31RSol	32RTibPost
20.29	0.098572	0.003052	0.008698	0.012512	0.00412	0.001526	0.005188	-0.050049	-0.02121	-0.025635	-0.018311	0.004425	-0.009766	0.016479	0.006866	-0.10773	0.017548	-0.019684	0.70877	0.061188	-0.25742	0.025635	-0.012207	-0.25696	0.016174	-0.072479	-0.037689	0.10849	-0.012665	-0.021973	-0.03418	0.010071
20.291	0.11292	-0.002289	0.011902	0.039063	0.005646	0.003662	-0.015869	-0.061798	-0.023956	-0.025482	-0.001068	0.008698	-0.058441	0.011597	-0.000153	-0.021362	0.020142	-0.005798	0.5806	-0.1799	-0.12863	0.052338	-0.010834	-0.23773	0.013123	-0.1294	-0.033875	0.10208	-0.007782	0.002899	-0.038147	0.029755
20.292	0.11963	0.001221	0.001984	0.046539	0.010681	0.015411	-0.013885	-0.020142	-0.023499	-0.000763	-0.002594	0.004272	-0.10605	0.010529	-0.009155	-0.022278	0.025635	-0.004578	0.10742	0.061493	-0.025177	0.027161	-0.001678	-0.31921	0.005951	-0.12985	-0.015869	0.034637	-0.003662	0.002594	-0.037231	0.12878
20.293	0.055389	-0.003204	0.040894	-0.041351	0.017242	0.016327	-0.010834	0.069122	-0.012207	0.006561	0.002899	0.013123	-0.10208	0.010986	-0.005951	0.048523	0.017242	0.004425	-0.40375	-0.083618	0.006714	-0.060577	0.021362	-0.20584	0.019073	0.028992	-0.012512	-0.03952	0.002289	0.017395	-0.037079	0.050354
20.294	0.070801	-0.002747	0.017853	0.045319	0.014801	0.010986	-0.050507	0.075378	-0.003815	-0.014496	-0.00351	0.002136	-0.079346	0.018616	0.002594	-0.013428	0.014343	0.012207	-0.70023	-0.0383	0.012512	-0.13168	0.006104	-0.17059	0.030823	0.20325	-0.001678	-0.11856	-0.002136	0.035553	-0.036774	-0.065155
20.295	0.042877	-0.002136	-0.02655	0.097809	0.01358	0.011139	-0.062714	0.073547	0.001678	0.001526	-0.021057	0.004578	-0.023499	0.021973	0.016022	-0.033417	0.014801	0.010681	-0.72433	-0.20874	-0.11093	-0.19165	-0.00061	-0.006866	0.035706	0.13565	0.00351	-0.053253	0.002899	0.041046	-0.037994	-0.21347
20.296	0.077515	-0.009308	-0.034637	0.010376	0.009766	0.007782	-0.031433	0.037994	-0.000458	0.005951	0.005035	0.002747	-0.031281	0.012817	0.011292	-0.13077	0.017242	0.013885	-0.20264	-0.066376	-0.086975	-0.2385	-0.007629	0.09201	0.04364	0.061188	0.007935	-0.056458	-0.004578	0.037079	-0.042572	-0.10239
20.297	0.07782	-0.010376	-0.044403	0.011749	0.001221	0.006561	-0.021973	-0.019531	0.005798	0.001221	-0.000458	0.009766	-0.096588	-0.00061	0.018616	-0.14679	0.011597	0.012207	0.069427	-0.038452	-0.020142	-0.26093	-0.00061	0.019989	0.040894	0.033112	0.002289	-0.05127	-0.015411	0.032043	-0.049438	0.001221
20.298	0.22736	-0.001373	-0.024414	0.028534	0.007324	0.003815	-0.019073	0.011902	0.005188	0.002289	0.010681	-0.00885	-0.10986	-0.004272	0.023041	-0.13825	0.01297	0.004883	0.20813	0.11307	0.030823	-0.1413	-0.008087	0.076752	0.053101	0.020294	0.016785	0.027008	-0.020599	0.02594	-0.050049	-0.003662
20.299	0.31052	-0.002899	-0.011139	0.01297	0.017242	0.015259	0.000305	0.003204	0.004272	0.005341	-0.002136	0.000153	-0.085449	0.003204	0.016174	-0.39215	0.013428	0.001373	0.34622	-0.083618	0.050507	-0.037689	-0.001984	0.042877	0.054016	0.012054	0.017395	0.13199	-0.011292	0.015869	-0.048218	0.005341
20.3	0.38055	-0.002594	0.002289	-0.013733	0.011749	0.011139	0.006866	-0.005035	0.001068	-0.012512	-0.002441	0.004578	-0.062256	0.005798	0.009308	0.20767	0.006561	0.005646	0.49957	-0.22827	0.09964	0.036621	-0.006866	-0.008698	0.022888	0.052032	0.017548	0.10132	-0.003204	-0.002899	-0.059052	0.001221
20.301	0.30701	-0.006256	0.023651	-0.019531	0.00885	0.003967	0.007935	0.029144	-0.006409	-0.01236	0.002747	0.007477	0.036011	0.012817	-0.00473	-0.11383	0.010529	-0.016327	0.25269	-0.026245	0.18188	0.03006	0.000763	0.17578	-0.055237	0.13687	0.016174	0.036926	-0.009766	-0.006866	-0.051575	0.003052
20.302	0.41931	-0.001373	0.036316	-0.020752	0.006561	0.001068	-0.007172	0.007629	-0.009003	-0.018921	0.010071	0.007324	-0.009918	0.01236	0.001984	-0.028534	0.000916	-0.02594	-0.37125	-0.045471	0.1445	-0.00473	0.000153	0.54489	-0.050507	0.14633	0.014038	0.05127	-0.000763	-0.005493	-0.055542	-0.003052
20.303	0.6015	0.004272	0.025787	-0.021515	-0.003204	0.008392	-0.03006	-0.013428	-0.003967	-0.003662	-0.007019	0.001373	-0.015411	0.014496	0.000153	-0.16907	-0.001221	-0.033112	-0.59082	0.026093	0.077057	-0.12054	0.000763	0.53345	-0.060425	0.12863	0.015717	0.062408	0.011139	0.000305	-0.050354	-0.007629
20.304	0.30746	0.004272	0.034332	-0.004883	-0.003815	0.010986	-0.050049	-0.033112	0.004272	-0.012512	-0.007172	0.004425	-0.096893	0.00946	-0.005035	-0.27603	0.003052	-0.040894	-0.43564	-0.015259	-0.044861	-0.20905	0.000305	0.34576	-0.14221	0.12649	0.017242	-0.005798	0.023804	0.016022	-0.04776	-0.01297
20.305	0.097656	0.001831	0.058899	-0.003052	0.007172	0.016174	-0.052948	-0.048065	0.004578	-0.026245	-0.009308	0.011292	-0.18524	0.019379	0.003204	-0.1152	-0.00351	-0.042419	-0.63614	0.046692	-0.19394	-0.23193	0.002594	0.26276	-0.23682	0.12863	0.014343	-0.032654	0.012665	0.014954	-0.048218	-0.008087
